<svg width="287" height="30" viewBox="0 0 287 30" fill="none" xmlns="http://www.w3.org/2000/svg">
<path d="M24.4084 7.21143H15.5848V16.0201H24.4084V7.21143Z" fill="#FF9ECA"/>
<path d="M14.5977 7.21154L19.9965 1.82568L25.3953 7.21154H14.5977Z" fill="#FFE97C"/>
<path d="M19.9965 14.0689C21.3556 14.0689 22.4574 12.9671 22.4574 11.6079C22.4574 10.2488 21.3556 9.14697 19.9965 9.14697C18.6374 9.14697 17.5356 10.2488 17.5356 11.6079C17.5356 12.9671 18.6374 14.0689 19.9965 14.0689Z" fill="#FFF6CC"/>
<path d="M42.4158 7.21143H33.5921V16.0201H42.4158V7.21143Z" fill="#FF9ECA"/>
<path d="M32.6049 7.21154L38.0036 1.82568L43.4024 7.21154H32.6049Z" fill="#FFE97C"/>
<path d="M38.0036 14.0689C39.3627 14.0689 40.4645 12.9671 40.4645 11.6079C40.4645 10.2488 39.3627 9.14697 38.0036 9.14697C36.6445 9.14697 35.5427 10.2488 35.5427 11.6079C35.5427 12.9671 36.6445 14.0689 38.0036 14.0689Z" fill="#FFF6CC"/>
<path d="M23.0551 11.6084C23.0551 9.92188 21.683 8.5498 19.9964 8.5498C18.3099 8.5498 16.9379 9.92182 16.9379 11.6084C16.9379 13.295 18.3099 14.667 19.9964 14.667C21.683 14.667 23.0551 13.2949 23.0551 11.6084ZM18.1332 11.6084C18.1332 10.581 18.9691 9.74505 19.9965 9.74505C21.0239 9.74505 21.8599 10.581 21.8599 11.6084C21.8599 12.6359 21.024 13.4718 19.9965 13.4718C18.9691 13.4718 18.1332 12.6359 18.1332 11.6084Z" fill="#4D1E1E"/>
<path d="M43.013 7.80907H43.4024C43.6443 7.80907 43.8622 7.66329 43.9547 7.43982C44.0471 7.21628 43.9957 6.95917 43.8245 6.78837L38.4257 1.40258C38.1925 1.16984 37.8147 1.16984 37.5816 1.40258L32.1827 6.78837C32.0115 6.95917 31.9601 7.21634 32.0525 7.43982C32.145 7.66335 32.3629 7.80907 32.6047 7.80907H32.9943V12.6957C32.9932 12.6966 32.992 12.6975 32.9909 12.6985C32.8991 12.7559 32.1262 13.1715 29.0001 13.1715C25.877 13.1715 25.0982 12.7529 25.0059 12.6953V7.80907H25.3954C25.6373 7.80907 25.8552 7.66329 25.9476 7.43982C26.04 7.21628 25.9887 6.95917 25.8175 6.78837L20.4186 1.40258C20.1854 1.16984 19.8076 1.16984 19.5745 1.40258L14.1757 6.78837C14.0045 6.95917 13.9531 7.21634 14.0455 7.43982C14.1379 7.66335 14.3559 7.80907 14.5977 7.80907H14.9872V27.577H14.7745C14.4445 27.577 14.1769 27.8446 14.1769 28.1746C14.1769 28.5047 14.4445 28.7722 14.7745 28.7722H16.3951C16.7251 28.7722 16.9927 28.5047 16.9927 28.1746C16.9927 27.8446 16.7251 27.577 16.3951 27.577H16.1823V16.6175H17.8082V28.1746C17.8082 28.5047 18.0758 28.7722 18.4058 28.7722C18.7358 28.7722 19.0034 28.5047 19.0034 28.1746V25.9511H20.9895V28.1746C20.9895 28.5047 21.2571 28.7722 21.5871 28.7722C21.9171 28.7722 22.1847 28.5047 22.1847 28.1746V16.6175H23.8105V27.577H23.5978C23.2678 27.577 23.0002 27.8446 23.0002 28.1746C23.0002 28.5047 23.2678 28.7722 23.5978 28.7722H25.2184C25.5484 28.7722 25.816 28.5047 25.816 28.1746C25.816 27.8446 25.5484 27.577 25.2184 27.577H25.0056V16.7634C25.695 16.971 26.899 17.1577 28.9998 17.1577C31.0874 17.1577 32.2954 16.9805 32.994 16.7702V27.577H32.7813C32.4513 27.577 32.1837 27.8446 32.1837 28.1746C32.1837 28.5047 32.4513 28.7722 32.7813 28.7722H34.4019C34.7319 28.7722 34.9995 28.5047 34.9995 28.1746C34.9995 27.8446 34.7319 27.577 34.4019 27.577H34.1892V16.6175H35.815V28.1746C35.815 28.5047 36.0826 28.7722 36.4126 28.7722C36.7426 28.7722 37.0102 28.5047 37.0102 28.1746V25.9511H38.9962V28.1746C38.9962 28.5047 39.2638 28.7722 39.5938 28.7722C39.9238 28.7722 40.1914 28.5047 40.1914 28.1746V16.6175H41.8173V24.3825C41.8173 24.7126 42.0849 24.9801 42.4149 24.9801C42.7449 24.9801 43.0125 24.7126 43.0125 24.3825V7.80907H43.013ZM38.0036 2.66972L41.9572 6.61382H34.05L38.0036 2.66972ZM28.4025 15.957C27.9699 15.9489 27.5899 15.9322 27.2567 15.9097V14.3153C27.6002 14.3375 27.9807 14.3535 28.4025 14.3612V15.957ZM29.5977 14.3614C30.0189 14.354 30.3996 14.3387 30.7434 14.317V15.9101C30.4104 15.9324 30.0303 15.949 29.5977 15.9571V14.3614ZM26.0615 14.1945V15.7798C25.3163 15.6593 25.0567 15.518 25.0058 15.4862V13.9722C25.2731 14.0527 25.6175 14.1301 26.0615 14.1945ZM19.9965 2.66972L23.9501 6.61382H16.043L19.9965 2.66972ZM16.1824 7.80907H23.8106V15.4223H16.1824V7.80907ZM19.0036 21.2693H20.9896V22.415H19.0036V21.2693ZM20.9896 20.0741H19.0036V18.9284H20.9896V20.0741ZM19.0036 24.7559V23.6102H20.9896V24.7559H19.0036ZM20.9896 17.7332H19.0036V16.6175H20.9896V17.7332ZM31.9386 15.7812V14.1992C32.3802 14.1363 32.7251 14.0602 32.9943 13.9792V15.4868C32.9932 15.4877 32.992 15.4886 32.9909 15.4896C32.9404 15.5211 32.6828 15.6615 31.9386 15.7812ZM37.0106 21.2693H38.9966V22.415H37.0106V21.2693ZM38.9967 20.0741H37.0106V18.9284H38.9967V20.0741ZM37.0106 24.7559V23.6102H38.9966V24.7559H37.0106ZM38.9967 17.7332H37.0106V16.6175H38.9967V17.7332ZM41.8178 15.4223H34.1895V7.80907H41.8178V15.4223Z" fill="#4D1E1E"/>
<path d="M38.0036 14.667C39.6901 14.667 41.0622 13.295 41.0622 11.6084C41.0622 9.92182 39.6901 8.5498 38.0036 8.5498C36.317 8.5498 34.9449 9.92182 34.9449 11.6084C34.9449 13.295 36.3171 14.667 38.0036 14.667ZM38.0036 9.74505C39.031 9.74505 39.8669 10.581 39.8669 11.6084C39.8669 12.6359 39.031 13.4718 38.0036 13.4718C36.9761 13.4718 36.1402 12.6359 36.1402 11.6084C36.1402 10.581 36.9761 9.74505 38.0036 9.74505Z" fill="#4D1E1E"/>
<path d="M43.013 26.4143V26.1752C43.013 25.8452 42.7454 25.5776 42.4154 25.5776C42.0854 25.5776 41.8178 25.8452 41.8178 26.1752V26.4143C41.8178 26.7444 42.0854 27.0119 42.4154 27.0119C42.7454 27.0119 43.013 26.7444 43.013 26.4143Z" fill="#4D1E1E"/>
<path d="M43.2256 27.5771H41.605C41.275 27.5771 41.0074 27.8446 41.0074 28.1747C41.0074 28.5048 41.275 28.7723 41.605 28.7723H43.2256C43.5556 28.7723 43.8232 28.5048 43.8232 28.1747C43.8232 27.8446 43.5557 27.5771 43.2256 27.5771Z" fill="#4D1E1E"/>
<path d="M53.4645 21V9.36368H58.0554C58.938 9.36368 59.6899 9.53224 60.3111 9.86936C60.9323 10.2027 61.4058 10.6667 61.7315 11.2614C62.0611 11.8523 62.2259 12.5341 62.2259 13.3068C62.2259 14.0795 62.0592 14.7614 61.7259 15.3523C61.3925 15.9432 60.9096 16.4034 60.277 16.733C59.6482 17.0625 58.8868 17.2273 57.9929 17.2273H55.0668V15.2557H57.5952C58.0687 15.2557 58.4588 15.1742 58.7656 15.0114C59.0762 14.8447 59.3073 14.6155 59.4588 14.3239C59.6141 14.0284 59.6918 13.6894 59.6918 13.3068C59.6918 12.9205 59.6141 12.5833 59.4588 12.2955C59.3073 12.0038 59.0762 11.7784 58.7656 11.6193C58.455 11.4564 58.0611 11.375 57.5838 11.375H55.9247V21H53.4645ZM63.8239 21V9.36368H66.2841V18.9716H71.2727V21H63.8239ZM75.2045 21H72.5682L76.5852 9.36368H79.7557L83.767 21H81.1307L78.2159 12.0227H78.125L75.2045 21ZM75.0398 16.4261H81.267V18.3466H75.0398V16.4261ZM83.2983 9.36368H86.054L88.7074 14.375H88.821L91.4744 9.36368H94.2301L89.9858 16.8864V21H87.5426V16.8864L83.2983 9.36368ZM102.587 13.125C102.507 12.8485 102.395 12.6042 102.251 12.392C102.107 12.1761 101.931 11.9943 101.723 11.8466C101.518 11.6951 101.284 11.5795 101.018 11.5C100.757 11.4205 100.467 11.3807 100.149 11.3807C99.5545 11.3807 99.0317 11.5284 98.581 11.8239C98.134 12.1193 97.7855 12.5492 97.5355 13.1136C97.2855 13.6742 97.1605 14.3598 97.1605 15.1705C97.1605 15.9811 97.2836 16.6705 97.5298 17.2386C97.776 17.8068 98.1245 18.2405 98.5753 18.5398C99.026 18.8352 99.5582 18.983 100.172 18.983C100.729 18.983 101.204 18.8845 101.598 18.6875C101.996 18.4867 102.299 18.2045 102.507 17.8409C102.719 17.4773 102.825 17.0473 102.825 16.5511L103.325 16.625H100.325V14.7727H105.195V16.2386C105.195 17.2614 104.979 18.1402 104.547 18.875C104.115 19.6061 103.52 20.1705 102.763 20.5682C102.005 20.9621 101.138 21.1591 100.161 21.1591C99.0696 21.1591 98.1113 20.9186 97.2855 20.4375C96.4598 19.9527 95.8158 19.2652 95.3537 18.375C94.8954 17.4811 94.6662 16.4205 94.6662 15.1932C94.6662 14.25 94.8026 13.4091 95.0753 12.6705C95.3518 11.928 95.7382 11.2992 96.2344 10.7841C96.7306 10.2689 97.3082 9.87693 97.9673 9.60799C98.6264 9.33905 99.3404 9.20459 100.109 9.20459C100.768 9.20459 101.382 9.30118 101.95 9.49436C102.518 9.68375 103.022 9.95269 103.462 10.3011C103.905 10.6496 104.267 11.0644 104.547 11.5455C104.827 12.0227 105.007 12.5492 105.087 13.125H102.587ZM107.043 21V9.36368H111.634C112.512 9.36368 113.262 9.52087 113.884 9.83527C114.509 10.1458 114.984 10.5871 115.31 11.1591C115.639 11.7273 115.804 12.3958 115.804 13.1648C115.804 13.9375 115.637 14.6023 115.304 15.1591C114.971 15.7121 114.488 16.1364 113.855 16.4318C113.226 16.7273 112.465 16.875 111.571 16.875H108.497V14.8977H111.173C111.643 14.8977 112.033 14.8333 112.344 14.7045C112.654 14.5758 112.885 14.3826 113.037 14.125C113.192 13.8674 113.27 13.5473 113.27 13.1648C113.27 12.7784 113.192 12.4527 113.037 12.1875C112.885 11.9223 112.652 11.7216 112.338 11.5852C112.027 11.4451 111.635 11.375 111.162 11.375H109.503V21H107.043ZM113.327 15.7045L116.219 21H113.503L110.673 15.7045H113.327ZM128.236 15.1818C128.236 16.4508 127.995 17.5303 127.514 18.4205C127.037 19.3106 126.385 19.9905 125.56 20.4602C124.738 20.9261 123.813 21.1591 122.787 21.1591C121.753 21.1591 120.825 20.9242 120.003 20.4545C119.181 19.9848 118.531 19.3049 118.054 18.4148C117.577 17.5246 117.338 16.447 117.338 15.1818C117.338 13.9129 117.577 12.8333 118.054 11.9432C118.531 11.053 119.181 10.375 120.003 9.90913C120.825 9.43943 121.753 9.20459 122.787 9.20459C123.813 9.20459 124.738 9.43943 125.56 9.90913C126.385 10.375 127.037 11.053 127.514 11.9432C127.995 12.8333 128.236 13.9129 128.236 15.1818ZM125.741 15.1818C125.741 14.3598 125.618 13.6667 125.372 13.1023C125.13 12.5379 124.787 12.1098 124.344 11.8182C123.901 11.5265 123.382 11.3807 122.787 11.3807C122.192 11.3807 121.673 11.5265 121.23 11.8182C120.787 12.1098 120.442 12.5379 120.196 13.1023C119.954 13.6667 119.832 14.3598 119.832 15.1818C119.832 16.0038 119.954 16.697 120.196 17.2614C120.442 17.8258 120.787 18.2538 121.23 18.5455C121.673 18.8371 122.192 18.983 122.787 18.983C123.382 18.983 123.901 18.8371 124.344 18.5455C124.787 18.2538 125.13 17.8258 125.372 17.2614C125.618 16.697 125.741 16.0038 125.741 15.1818ZM137.246 9.36368H139.706V16.9205C139.706 17.7689 139.503 18.5114 139.098 19.1477C138.696 19.7841 138.134 20.2803 137.411 20.6364C136.687 20.9886 135.844 21.1648 134.882 21.1648C133.916 21.1648 133.071 20.9886 132.348 20.6364C131.625 20.2803 131.062 19.7841 130.661 19.1477C130.259 18.5114 130.058 17.7689 130.058 16.9205V9.36368H132.518V16.7102C132.518 17.1534 132.615 17.5473 132.808 17.892C133.005 18.2367 133.282 18.5076 133.638 18.7045C133.994 18.9015 134.409 19 134.882 19C135.359 19 135.774 18.9015 136.126 18.7045C136.482 18.5076 136.757 18.2367 136.95 17.892C137.147 17.5473 137.246 17.1534 137.246 16.7102V9.36368ZM151.463 9.36368V21H149.338L144.276 13.6761H144.19V21H141.73V9.36368H143.889L148.912 16.6818H149.014V9.36368H151.463ZM157.621 21H153.496V9.36368H157.655C158.825 9.36368 159.833 9.59663 160.678 10.0625C161.522 10.5246 162.172 11.1894 162.626 12.0568C163.085 12.9242 163.314 13.9621 163.314 15.1705C163.314 16.3826 163.085 17.4242 162.626 18.2955C162.172 19.1667 161.518 19.8352 160.666 20.3011C159.818 20.767 158.803 21 157.621 21ZM155.956 18.892H157.518C158.246 18.892 158.857 18.7633 159.354 18.5057C159.854 18.2443 160.229 17.8409 160.479 17.2955C160.732 16.7462 160.859 16.0379 160.859 15.1705C160.859 14.3106 160.732 13.608 160.479 13.0625C160.229 12.517 159.856 12.1155 159.359 11.858C158.863 11.6004 158.251 11.4716 157.524 11.4716H155.956V18.892ZM175.152 12.7102C175.107 12.2519 174.911 11.8958 174.567 11.642C174.222 11.3883 173.754 11.2614 173.163 11.2614C172.762 11.2614 172.423 11.3182 172.146 11.4318C171.87 11.5417 171.658 11.6951 171.51 11.892C171.366 12.089 171.294 12.3125 171.294 12.5625C171.286 12.7708 171.33 12.9527 171.425 13.108C171.523 13.2633 171.658 13.3977 171.828 13.5114C171.999 13.6212 172.196 13.7178 172.419 13.8011C172.643 13.8807 172.881 13.9489 173.135 14.0057L174.18 14.2557C174.688 14.3693 175.154 14.5208 175.578 14.7102C176.002 14.8996 176.37 15.1326 176.68 15.4091C176.991 15.6856 177.232 16.0114 177.402 16.3864C177.576 16.7614 177.665 17.1913 177.669 17.6761C177.665 18.3883 177.483 19.0057 177.124 19.5284C176.768 20.0473 176.252 20.4508 175.578 20.7386C174.908 21.0227 174.099 21.1648 173.152 21.1648C172.213 21.1648 171.394 21.0208 170.697 20.733C170.004 20.4451 169.463 20.0189 169.072 19.4545C168.686 18.8864 168.483 18.1837 168.464 17.3466H170.845C170.872 17.7367 170.983 18.0625 171.18 18.3239C171.381 18.5814 171.648 18.7765 171.982 18.9091C172.319 19.0379 172.699 19.1023 173.124 19.1023C173.54 19.1023 173.902 19.0417 174.209 18.9205C174.519 18.7992 174.76 18.6307 174.93 18.4148C175.101 18.1989 175.186 17.9508 175.186 17.6705C175.186 17.4091 175.108 17.1894 174.953 17.0114C174.802 16.8333 174.578 16.6818 174.283 16.5568C173.991 16.4318 173.633 16.3182 173.209 16.2159L171.942 15.8977C170.961 15.6591 170.186 15.286 169.618 14.7784C169.05 14.2708 168.768 13.5871 168.771 12.7273C168.768 12.0227 168.955 11.4072 169.334 10.8807C169.716 10.3542 170.241 9.94322 170.908 9.64777C171.574 9.35231 172.332 9.20459 173.18 9.20459C174.044 9.20459 174.798 9.35231 175.442 9.64777C176.089 9.94322 176.593 10.3542 176.953 10.8807C177.313 11.4072 177.499 12.017 177.51 12.7102H175.152ZM179.324 21V9.36368H187.165V11.392H181.784V14.1648H186.761V16.1932H181.784V18.9716H187.188V21H179.324ZM191.126 21H188.49L192.507 9.36368H195.678L199.689 21H197.053L194.138 12.0227H194.047L191.126 21ZM190.962 16.4261H197.189V18.3466H190.962V16.4261ZM201.089 21V9.36368H205.68C206.559 9.36368 207.309 9.52087 207.93 9.83527C208.555 10.1458 209.031 10.5871 209.357 11.1591C209.686 11.7273 209.851 12.3958 209.851 13.1648C209.851 13.9375 209.684 14.6023 209.351 15.1591C209.018 15.7121 208.535 16.1364 207.902 16.4318C207.273 16.7273 206.512 16.875 205.618 16.875H202.544V14.8977H205.22C205.69 14.8977 206.08 14.8333 206.391 14.7045C206.701 14.5758 206.932 14.3826 207.084 14.125C207.239 13.8674 207.317 13.5473 207.317 13.1648C207.317 12.7784 207.239 12.4527 207.084 12.1875C206.932 11.9223 206.699 11.7216 206.385 11.5852C206.074 11.4451 205.682 11.375 205.209 11.375H203.55V21H201.089ZM207.374 15.7045L210.266 21H207.55L204.72 15.7045H207.374ZM221.857 13.4375H219.368C219.322 13.1155 219.23 12.8295 219.089 12.5795C218.949 12.3258 218.769 12.1098 218.55 11.9318C218.33 11.7538 218.076 11.6174 217.788 11.5227C217.504 11.428 217.196 11.3807 216.862 11.3807C216.26 11.3807 215.735 11.5303 215.288 11.8295C214.841 12.125 214.495 12.5568 214.249 13.125C214.002 13.6894 213.879 14.375 213.879 15.1818C213.879 16.0114 214.002 16.7083 214.249 17.2727C214.499 17.8371 214.847 18.2633 215.294 18.5511C215.741 18.839 216.258 18.983 216.845 18.983C217.175 18.983 217.48 18.9394 217.76 18.8523C218.044 18.7652 218.296 18.6383 218.516 18.4716C218.735 18.3011 218.917 18.0947 219.061 17.8523C219.209 17.6098 219.311 17.3333 219.368 17.0227L221.857 17.0341C221.792 17.5682 221.631 18.0833 221.374 18.5795C221.12 19.072 220.777 19.5133 220.345 19.9034C219.917 20.2898 219.406 20.5966 218.811 20.8239C218.22 21.0473 217.552 21.1591 216.805 21.1591C215.768 21.1591 214.839 20.9242 214.021 20.4545C213.207 19.9848 212.563 19.3049 212.089 18.4148C211.62 17.5246 211.385 16.447 211.385 15.1818C211.385 13.9129 211.624 12.8333 212.101 11.9432C212.578 11.053 213.226 10.375 214.044 9.90913C214.862 9.43943 215.783 9.20459 216.805 9.20459C217.48 9.20459 218.105 9.29928 218.68 9.48868C219.26 9.67807 219.773 9.95459 220.22 10.3182C220.667 10.678 221.031 11.1193 221.311 11.642C221.595 12.1648 221.777 12.7633 221.857 13.4375ZM223.621 21V9.36368H226.081V14.1648H231.075V9.36368H233.53V21H231.075V16.1932H226.081V21H223.621Z" fill="#1B4965"/>
</svg>
